<svg width="30" height="31" viewBox="0 0 30 31" fill="none" xmlns="http://www.w3.org/2000/svg">
<path d="M3.80284 8.75H23.8538V5.83333H3.80284V8.75ZM3.80284 29.1667C3.01513 29.1667 2.34103 28.8813 1.78056 28.3106C1.22008 27.7399 0.93937 27.0531 0.938416 26.25V5.83333C0.938416 5.03125 1.21913 4.34486 1.78056 3.77417C2.34199 3.20347 3.01608 2.91764 3.80284 2.91667H5.23506V0H8.09948V2.91667H19.5572V0H22.4216V2.91667H23.8538C24.6416 2.91667 25.3161 3.2025 25.8776 3.77417C26.439 4.34583 26.7192 5.03222 26.7183 5.83333V14.1094C26.2647 13.8906 25.7993 13.7083 25.3219 13.5625C24.8445 13.4167 24.3551 13.3073 23.8538 13.2344V11.6667H3.80284V26.25H12.8258C12.9929 26.7847 13.1901 27.2951 13.4173 27.7812C13.6445 28.2674 13.9128 28.7292 14.2222 29.1667H3.80284ZM22.4216 30.625C20.4404 30.625 18.7518 29.9138 17.3559 28.4915C15.96 27.0691 15.2615 25.3497 15.2606 23.3333C15.2606 21.316 15.959 19.5966 17.3559 18.1752C18.7528 16.7538 20.4413 16.0426 22.4216 16.0417C24.4029 16.0417 26.0919 16.7528 27.4888 18.1752C28.8857 19.5976 29.5836 21.3169 29.5827 23.3333C29.5827 25.3507 28.8843 27.0706 27.4874 28.4929C26.0905 29.9153 24.4019 30.626 22.4216 30.625ZM24.8206 26.7969L25.8231 25.776L23.1377 23.0417V18.9583H21.7055V23.625L24.8206 26.7969Z" fill="#0F1A3B"/>
</svg>
