<svg width="19" height="19" viewBox="0 0 19 19" fill="none" xmlns="http://www.w3.org/2000/svg">
<path d="M9.5 17.375C11.0575 17.375 12.5801 16.9131 13.8751 16.0478C15.1702 15.1825 16.1795 13.9526 16.7756 12.5136C17.3716 11.0747 17.5275 9.49127 17.2237 7.96367C16.9198 6.43607 16.1698 5.03288 15.0685 3.93154C13.9671 2.8302 12.5639 2.08018 11.0363 1.77632C9.50874 1.47246 7.92534 1.62841 6.48637 2.22445C5.0474 2.82049 3.81749 3.82985 2.95218 5.12489C2.08686 6.41993 1.625 7.94248 1.625 9.5C1.625 10.802 1.94 12.0288 2.5 13.1111L1.625 17.375L5.88888 16.5C6.97038 17.0591 8.19888 17.375 9.5 17.375Z" stroke="#161653" stroke-width="1.5" stroke-linecap="round" stroke-linejoin="round"/>
</svg>
