<svg width="20" height="18" viewBox="0 0 20 18" fill="none" xmlns="http://www.w3.org/2000/svg">
<path d="M18.5714 5.2232C18.5714 4.62052 18.4914 4.08853 18.3315 3.62722C18.1715 3.16591 17.9669 2.79946 17.7176 2.52789C17.4684 2.25631 17.1652 2.03495 16.808 1.86382C16.4509 1.69269 16.1012 1.57737 15.7589 1.51784C15.4167 1.45832 15.0521 1.42856 14.6652 1.42856C14.2783 1.42856 13.8616 1.52342 13.4152 1.71315C12.9688 1.90289 12.5577 2.14098 12.1819 2.42744C11.8062 2.7139 11.4844 2.98176 11.2165 3.23101C10.9487 3.48027 10.7254 3.70906 10.5469 3.9174C10.4129 4.08109 10.2307 4.16293 10 4.16293C9.76935 4.16293 9.58705 4.08109 9.45312 3.9174C9.27455 3.70906 9.05134 3.48027 8.78348 3.23101C8.51562 2.98176 8.19382 2.7139 7.81808 2.42744C7.44234 2.14098 7.03125 1.90289 6.58482 1.71315C6.13839 1.52342 5.72173 1.42856 5.33482 1.42856C4.94792 1.42856 4.58333 1.45832 4.24107 1.51784C3.89881 1.57737 3.54911 1.69269 3.19196 1.86382C2.83482 2.03495 2.53162 2.25631 2.28237 2.52789C2.03311 2.79946 1.8285 3.16591 1.66853 3.62722C1.50856 4.08853 1.42857 4.62052 1.42857 5.2232C1.42857 6.4732 2.12426 7.79388 3.51562 9.18525L10 15.4353L16.4732 9.19641C17.872 7.7976 18.5714 6.4732 18.5714 5.2232ZM20 5.2232C20 6.86754 19.1481 8.54165 17.4442 10.2455L10.4911 16.9419C10.3571 17.0759 10.1935 17.1428 10 17.1428C9.80655 17.1428 9.64286 17.0759 9.50893 16.9419L2.54464 10.2232C2.47024 10.1637 2.36793 10.0669 2.23772 9.93302C2.10751 9.79909 1.90104 9.55542 1.6183 9.20199C1.33557 8.84857 1.08259 8.48585 0.859375 8.11382C0.636161 7.7418 0.437128 7.29165 0.262277 6.76338C0.0874256 6.2351 0 5.72171 0 5.2232C0 3.58629 0.47247 2.30653 1.41741 1.38391C2.36235 0.461294 3.66815 -1.52588e-05 5.33482 -1.52588e-05C5.79613 -1.52588e-05 6.26674 0.0799699 6.74665 0.23994C7.22656 0.39991 7.67299 0.615684 8.08594 0.887261C8.49888 1.15884 8.85417 1.41368 9.15179 1.65177C9.4494 1.88987 9.73214 2.14284 10 2.4107C10.2679 2.14284 10.5506 1.88987 10.8482 1.65177C11.1458 1.41368 11.5011 1.15884 11.9141 0.887261C12.327 0.615684 12.7734 0.39991 13.2533 0.23994C13.7333 0.0799699 14.2039 -1.52588e-05 14.6652 -1.52588e-05C16.3318 -1.52588e-05 17.6376 0.461294 18.5826 1.38391C19.5275 2.30653 20 3.58629 20 5.2232Z" fill="#161654"/>
</svg>
