<svg width="32" height="32" viewBox="0 0 32 32" fill="none" xmlns="http://www.w3.org/2000/svg">
<path d="M16 32C24.8366 32 32 24.8366 32 16C32 7.16344 24.8366 0 16 0C7.16344 0 0 7.16344 0 16C0 24.8366 7.16344 32 16 32Z" fill="#9F82BB"/>
<path fill-rule="evenodd" clip-rule="evenodd" d="M27.2331 27.4009C24.2136 30.3769 20.1362 32.0326 15.8967 32.0042C11.6572 31.9759 7.60238 30.2658 4.62291 27.2497C5.00384 26.196 5.74374 25.3102 6.71275 24.7477C7.36602 24.265 8.07433 23.8615 8.82278 23.5459C7.68518 19.635 10.779 17.7119 11.9622 17.1588C11.9622 18.9644 13.6533 17.7662 15.7515 17.789C17.4788 17.8076 20.8942 19.5469 20.8942 17.2531C22.7946 17.8154 24.8658 21.4364 23.4403 23.6614C24.0249 23.9471 24.5772 24.2947 25.0879 24.698C26.0856 25.3332 26.8411 26.285 27.2331 27.4009Z" fill="#4C4A4F"/>
<path fill-rule="evenodd" clip-rule="evenodd" d="M12.1559 20.0331L20.2796 20.0797V21.8599L20.2755 21.8874C20.2385 22.2133 20.169 22.5348 20.0678 22.8468C19.4724 24.8083 17.8485 25.7424 15.9451 26.6894C14.4476 25.9138 12.3309 24.5162 12.1626 22.0443L12.1559 22.0132V21.9096C12.1545 21.8741 12.1536 21.8385 12.1533 21.803C12.1533 21.8211 12.1548 21.8392 12.1559 21.8573V20.0331Z" fill="#302E33"/>
<path opacity="0.22" fill-rule="evenodd" clip-rule="evenodd" d="M20.2775 20.0181V21.8718C20.2713 22.0171 20.2491 22.1612 20.2113 22.3016C20.1409 22.6209 20.0468 22.9346 19.9296 23.2399C19.2558 23.7369 18.4666 24.054 17.6362 24.1613C16.8059 24.2686 15.9619 24.1626 15.184 23.8533C14.406 23.5439 13.7197 23.0414 13.1898 22.3933C12.6599 21.7451 12.3038 20.9725 12.1553 20.1486L20.2775 20.0181Z" fill="black"/>
<path fill-rule="evenodd" clip-rule="evenodd" d="M16.1186 4.36609C27.1379 4.36609 22.8432 22.6268 16.1186 22.6268C9.76725 22.6268 5.09929 4.36609 16.1186 4.36609ZM10.2509 25.4612C10.2664 25.4809 15.6458 32.4427 21.9687 25.3572C21.2049 27.4558 17.9112 29.1216 16.0264 29.1164C12.4282 29.106 10.4362 26.2172 10.2509 25.4612Z" fill="#302E33"/>
<path fill-rule="evenodd" clip-rule="evenodd" d="M9.50938 12.451C7.91974 13.1443 9.27119 16.4308 10.2716 16.4163C9.85663 15.1304 9.60066 13.7991 9.50938 12.451ZM22.8557 12.4505C24.4453 13.1438 23.0938 16.4308 22.094 16.4158C22.5086 15.13 22.7644 13.7984 22.8557 12.4505Z" fill="#302E33"/>
<path fill-rule="evenodd" clip-rule="evenodd" d="M16.3138 15.8685C16.2485 15.9343 16.4225 15.941 16.0999 15.9317L15.5459 15.6029C15.6293 15.2606 15.9824 15.0954 16.0549 14.7464L15.6158 14.3545C15.985 13.8211 16.2485 14.1194 15.9632 13.1635C15.5355 11.7313 16.6535 11.4589 15.5319 9.16403C15.1689 8.37189 14.9113 7.53561 14.7656 6.67652C14.2959 4.4707 15.1254 4.70215 15.4801 4.38785C14.7733 4.42673 14.0766 4.57268 13.4136 4.82073C12.8564 5.02108 12.3373 5.31453 11.8783 5.68856C11.8643 5.96921 12.3454 5.87134 12.5318 5.72429L13.9718 4.98073C13.6606 5.70202 13.4628 5.95937 13.8579 6.79561C14.2058 7.53244 13.7424 8.00105 13.2588 8.30914C12.0782 9.05995 9.97592 8.76377 11.9705 10.3596C12.1408 10.0622 12.3719 9.80397 12.6488 9.60188C12.9256 9.39979 13.242 9.25836 13.5772 9.18681C13.7542 9.18304 13.9301 9.21636 14.0934 9.28464C14.2568 9.35292 14.4041 9.45463 14.5257 9.58325C14.6474 9.71186 14.7409 9.86452 14.8 10.0314C14.8591 10.1983 14.8827 10.3757 14.8691 10.5522C14.7621 11.0814 14.8053 11.6299 14.9939 12.1357L15.2409 12.4811C15.0427 12.6034 14.8511 12.7363 14.6672 12.8792C14.8236 13.0315 15.0566 13.0962 15.1876 13.2443C15.4879 13.5834 15.3326 14.3679 14.4419 14.8464C13.6621 15.2647 12.435 15.4988 12.1937 16.2268C12.363 16.363 12.4577 16.379 12.6177 16.5012C12.8 16.6411 12.8316 16.7394 13.019 16.8606C13.235 16.6649 14.0049 15.6215 14.7827 15.6256C14.8614 16.0202 14.0158 16.3102 13.5493 17.119C13.4146 17.3525 13.3561 17.5425 13.1568 17.6539C12.8875 17.5192 12.6162 16.7974 11.9871 16.5126C11.6655 16.8047 11.7023 16.8539 11.9394 17.1754C12.2651 17.6171 13.1925 19.0141 13.4317 19.2166C13.978 18.5994 13.5254 18.8748 14.4637 18.1173C14.8546 18.3192 15.1368 18.9251 15.898 19.0121V19.0902C17.4799 18.9261 17.2541 18.5 17.9029 18.1209C18.7454 18.807 18.4357 18.6765 18.9349 19.2233C19.4643 18.584 19.9559 17.9142 20.407 17.2174C20.4867 17.104 20.6265 16.9693 20.6271 16.8544L20.3795 16.4878C20.364 16.4961 20.3407 16.494 20.3329 16.5137C20.3262 16.5333 20.2977 16.5344 20.2879 16.5401L19.739 17.004C19.5802 17.2302 19.4032 17.443 19.2098 17.6404C18.895 17.454 18.9219 17.0884 18.4238 16.5934C18.2478 16.4184 18.1157 16.2853 17.9402 16.1393C17.7755 16.0021 17.5601 15.9115 17.586 15.6303C18.355 15.6288 19.1203 16.7058 19.3476 16.8823L20.1761 16.2268C19.9518 15.2067 17.4902 15.2109 17.1138 13.9796C16.8834 13.2236 17.3561 13.1438 17.5643 12.9973C17.6865 12.9108 17.6311 12.9548 17.6989 12.8792C17.5565 12.7348 17.3556 12.6167 17.1951 12.4821C17.3204 11.9954 17.5814 12.4303 17.5291 10.9494C17.498 10.0671 17.3007 10.0821 17.9366 9.55859C18.3855 9.18992 18.632 9.02112 19.3864 9.38772C19.8902 9.6316 19.9953 9.96351 20.3795 10.3379C20.7436 10.197 21.6715 9.36649 20.9595 8.99626C20.6379 8.82901 19.6841 8.69749 19.0737 8.2817C18.4963 7.88921 18.2167 7.38746 18.5595 6.72312C18.692 6.44011 18.7438 6.12598 18.7091 5.8154C18.6744 5.50482 18.5545 5.20987 18.3627 4.96312C18.6416 5.07595 18.9106 5.21191 19.1669 5.3696C19.2984 5.44053 20.6529 6.35341 20.466 5.76312C20.0127 5.38913 19.5083 5.08189 18.968 4.85076C18.3183 4.62186 17.6434 4.47166 16.9579 4.40338C17.1904 4.56027 17.6761 4.69024 17.7186 5.38565C17.6611 6.71922 17.3463 8.02911 16.7917 9.24325C15.6976 11.4957 16.828 11.506 16.3635 13.2531C16.1579 14.0272 16.3821 13.9169 16.7379 14.3545C16.5939 14.5652 16.4598 14.5968 16.3091 14.7516C16.3842 15.1203 16.7301 15.2761 16.8052 15.6029C16.6678 15.7338 16.498 15.8256 16.3133 15.869L16.3138 15.8685ZM11.4164 16.4277C10.9757 16.0356 10.5937 15.5822 10.2819 15.0814C10.021 14.6051 9.93398 13.4312 10.2788 13.1034C10.7267 13.5881 10.8992 14.2996 11.4346 14.6972C12.0813 15.1788 12.1797 15.5143 11.4164 16.4277ZM20.93 16.4293C20.0953 15.2601 20.3324 15.1943 20.9351 14.6983C21.4928 14.2395 21.6368 13.5358 21.9707 13.2293C22.1188 13.0936 22.0034 13.1671 22.1675 13.1128C22.9028 14.6051 21.2494 16.3464 20.93 16.4293ZM16.0492 21.3334L15.8964 21.9599C15.3957 21.4136 15.854 21.1288 15.885 20.712C15.9192 20.2563 15.4019 19.7261 16.0777 19.5242L16.204 19.4998C16.9403 19.6034 16.4707 20.2403 16.4702 20.6483C16.4696 21.2293 16.8896 21.0543 16.5287 21.9081L16.3205 21.2852L16.1455 21.2407L16.0492 21.3334ZM15.6603 19.2823C16.0725 19.2927 17.3017 19.2202 17.4985 19.3999C17.892 19.7572 17.3779 20.3863 17.367 20.7658C17.3504 21.3163 17.8527 21.5343 17.6746 22.1018C17.439 22.6211 16.8616 22.5093 16.1398 22.5667C15.9783 22.5771 15.7939 22.5864 15.6324 22.59C14.0324 22.4849 15.0353 21.2805 15.0017 20.7648C14.9929 20.4086 14.735 20.1812 14.7376 19.8007C14.7417 19.2549 15.0576 19.2818 15.6603 19.2823ZM14.6734 12.1973C14.6615 12.2893 14.6271 12.3769 14.5731 12.4523C14.5192 12.5277 14.4475 12.5887 14.3643 12.6297C13.8786 12.9005 12.916 12.2278 12.6079 12.0264C11.4879 11.2937 11.2435 12.828 10.8867 13.1961C10.2747 12.8445 10.5745 12.1124 10.4502 11.4118C10.3575 10.8873 10.023 10.4342 9.92984 9.76002C9.74705 8.44481 10.4787 7.26008 11.0674 6.50979L11.2176 6.6584C10.9012 7.01879 9.65799 8.40752 10.5921 8.98021C11.3849 9.46642 10.5766 10.2789 11.1643 10.777C11.3626 10.9458 11.3471 10.8966 11.6914 10.9302C12.1926 10.9794 12.2475 11.0405 12.9238 10.3037C13.1568 10.05 13.2205 9.76778 13.5006 9.65853C13.876 9.86202 13.9241 10.5129 13.9614 10.9504C14.0277 11.7121 13.8387 11.7313 14.3627 11.941C14.6605 12.0601 14.5626 12.0057 14.6734 12.1973ZM21.6254 7.36623C21.3235 6.95717 20.8699 6.88985 21.2588 6.56985C21.9024 7.36416 22.6009 8.45672 22.4326 9.80299C22.342 10.5305 22.0054 10.8852 21.9164 11.4786C21.7937 12.2967 22.1375 12.7151 21.4804 13.2112C21.1676 12.9077 20.8849 11.3056 19.7245 12.0539C17.5467 13.4587 17.6973 12.1036 17.7103 12.0855C17.8843 11.9664 18.2167 11.8856 18.3115 11.7437C18.5067 11.4548 18.2177 9.97283 18.866 9.65076C19.142 9.75484 19.6614 10.6776 20.1077 10.8909C20.2862 10.9479 20.4748 10.9662 20.6609 10.9447C20.8471 10.9232 21.0265 10.8623 21.1873 10.7661C21.7968 10.24 20.9688 9.44519 21.7672 8.9683C22.3783 8.60325 21.9552 7.81413 21.6254 7.36675V7.36623ZM16.1849 16.8026L16.2724 16.7969C16.6167 16.6581 16.7218 16.3992 17.0775 16.2051C17.3109 16.2042 17.5386 16.2773 17.728 16.4137C17.9173 16.5502 18.0587 16.743 18.1318 16.9647C18.0836 17.192 17.0216 17.7491 16.4303 18.2467C16.2242 18.4207 16.3961 18.3741 16.1144 18.3917C15.8863 18.1937 15.6471 18.0088 15.3978 17.8382C14.7081 17.4167 13.9086 17.09 14.3907 16.6229C14.6327 16.3794 14.9487 16.2232 15.2891 16.1787C15.5754 16.3837 15.8638 16.7456 16.1849 16.8026Z" fill="#ED4B39"/>
<path fill-rule="evenodd" clip-rule="evenodd" d="M17.1117 6.08052C17.1134 6.10364 17.1143 6.12729 17.1143 6.15145C17.1143 6.39865 17.0161 6.63571 16.8413 6.81051C16.6665 6.9853 16.4295 7.08349 16.1823 7.08349C15.9351 7.08349 15.698 6.9853 15.5232 6.81051C15.3484 6.63571 15.2502 6.39865 15.2502 6.15145C15.2502 6.12729 15.2511 6.10364 15.2528 6.08052H15.2502C15.3771 4.92065 15.8923 4.04453 16.2133 3.02654C16.5137 4.04453 16.9693 4.84919 17.1143 6.08052H17.1117ZM21.2883 6.41812C21.2846 6.43859 21.2805 6.45896 21.2759 6.47922C21.2506 6.58414 21.2048 6.68305 21.1413 6.77031C21.0778 6.85756 20.9977 6.93145 20.9056 6.98776C20.8136 7.04406 20.7113 7.08168 20.6047 7.09846C20.4981 7.11524 20.3892 7.11086 20.2843 7.08556C20.1793 7.06027 20.0804 7.01456 19.9932 6.95103C19.9059 6.88751 19.832 6.80743 19.7757 6.71535C19.7194 6.62327 19.6818 6.52101 19.665 6.41439C19.6483 6.30778 19.6526 6.1989 19.6779 6.09398C19.6846 6.07427 19.6895 6.05399 19.6924 6.0334C20.3776 5.36538 20.8794 4.53228 21.1495 3.61424C21.5187 4.50478 21.5684 5.49559 21.2904 6.41864L21.2883 6.41812ZM11.0426 6.42278C11.0457 6.44349 11.0498 6.46421 11.055 6.4844C11.1062 6.6963 11.2394 6.8792 11.4254 6.99286C11.5175 7.04914 11.6198 7.08673 11.7264 7.10348C11.8331 7.12023 11.9419 7.11581 12.0469 7.09048C12.1518 7.06515 12.2507 7.01941 12.3379 6.95585C12.4252 6.8923 12.499 6.81219 12.5553 6.72009C12.6116 6.62798 12.6492 6.5257 12.6659 6.41907C12.6827 6.31244 12.6783 6.20356 12.6529 6.09864C12.6461 6.07895 12.641 6.05867 12.6379 6.03806C11.9529 5.36997 11.4513 4.53688 11.1814 3.6189C10.812 4.50938 10.7621 5.50019 11.04 6.4233L11.0426 6.42278Z" fill="#E6E6E6"/>
</svg>
