<svg width="41" height="29" viewBox="0 0 41 29" fill="none" xmlns="http://www.w3.org/2000/svg">
<path opacity="0.6" d="M25.6418 2.41663H23.9751C19.2618 2.41663 16.9035 2.41663 15.4401 3.47875C13.9751 4.53967 13.9751 6.24946 13.9751 9.66663V19.3333C13.9751 22.7505 13.9751 24.4602 15.4401 25.5212C16.9035 26.5833 19.2618 26.5833 23.9751 26.5833H25.6418C30.3551 26.5833 32.7135 26.5833 34.1768 25.5212C35.6418 24.4602 35.6418 22.7505 35.6418 19.3333V9.66663C35.6418 6.24946 35.6418 4.53967 34.1768 3.47875C32.7135 2.41663 30.3551 2.41663 25.6418 2.41663Z" fill="#D0DCFF"/>
<path opacity="0.4" d="M13.9751 9.66667C13.9751 7.80825 13.9751 6.45613 14.2101 5.4375H13.9751C10.0468 5.4375 8.08178 5.4375 6.86178 6.322C5.64178 7.2065 5.64178 8.63112 5.64178 11.4792V17.5208C5.64178 20.3689 5.64178 21.7923 6.86178 22.678C8.08178 23.5625 10.0468 23.5625 13.9751 23.5625H14.2101C13.9751 22.5439 13.9751 21.1918 13.9751 19.3333V9.66667Z" fill="#D0DCFF"/>
<path fill-rule="evenodd" clip-rule="evenodd" d="M24.8585 13.8595C25.0925 14.0294 25.224 14.2598 25.224 14.4999C25.224 14.7401 25.0925 14.9704 24.8585 15.1404L21.5251 17.557C21.4107 17.6461 21.2727 17.7175 21.1194 17.767C20.966 17.8165 20.8005 17.8432 20.6327 17.8453C20.4648 17.8475 20.2981 17.8251 20.1425 17.7795C19.9868 17.7339 19.8454 17.6661 19.7267 17.58C19.608 17.494 19.5145 17.3915 19.4516 17.2786C19.3887 17.1658 19.3578 17.0449 19.3608 16.9232C19.3638 16.8015 19.4005 16.6815 19.4688 16.5704C19.5371 16.4592 19.6357 16.3592 19.7585 16.2762L20.9585 15.4062H8.97513C8.64361 15.4062 8.32566 15.3107 8.09124 15.1408C7.85682 14.9708 7.72513 14.7403 7.72513 14.4999C7.72513 14.2596 7.85682 14.0291 8.09124 13.8591C8.32566 13.6892 8.64361 13.5937 8.97513 13.5937H20.9585L19.7585 12.7237C19.6357 12.6407 19.5371 12.5407 19.4688 12.4295C19.4005 12.3183 19.3638 12.1983 19.3608 12.0767C19.3578 11.955 19.3887 11.8341 19.4516 11.7213C19.5145 11.6084 19.608 11.5059 19.7267 11.4199C19.8454 11.3338 19.9868 11.266 20.1425 11.2204C20.2981 11.1748 20.4648 11.1524 20.6327 11.1546C20.8005 11.1567 20.966 11.1833 21.1194 11.2329C21.2727 11.2824 21.4107 11.3538 21.5251 11.4429L24.8585 13.8595Z" fill="#D0DCFF"/>
</svg>
