<svg width="25" height="26" viewBox="0 0 25 26" fill="none" xmlns="http://www.w3.org/2000/svg">
<path d="M17.8138 6.248C17.8138 3.26541 15.3959 0.84749 12.4133 0.84749C10.9771 0.841453 9.59755 1.40774 8.57981 2.42118C7.56208 3.43463 6.98997 4.81173 6.98997 6.248M17.6421 24.875H7.20737C3.37441 24.875 0.433909 23.4906 1.26915 17.9185L2.24169 10.367C2.75656 7.58667 4.53002 6.5226 6.08608 6.5226H18.8092C20.3881 6.5226 22.0586 7.66676 22.6536 10.367L23.6261 17.9185C24.3355 22.8613 21.4751 24.875 17.6421 24.875Z" stroke="#161654" stroke-width="1.5" stroke-linecap="round" stroke-linejoin="round"/>
<path d="M16.12 11.8775H16.0637" stroke="#161654" stroke-width="1.5" stroke-linecap="round" stroke-linejoin="round"/>
<path d="M8.83246 11.8775H8.77496" stroke="#161654" stroke-width="1.5" stroke-linecap="round" stroke-linejoin="round"/>
</svg>
