<svg width="21" height="20" viewBox="0 0 21 20" fill="none" xmlns="http://www.w3.org/2000/svg">
<path d="M18.9751 8.33332H6.32511L11.8251 2.84998C12.1389 2.53614 12.3153 2.11049 12.3153 1.66665C12.3153 1.22281 12.1389 0.797156 11.8251 0.483317C11.5113 0.169477 11.0856 -0.00683594 10.6418 -0.00683594C10.1979 -0.00683594 9.77228 0.169477 9.45844 0.483317L1.12511 8.81665C0.973374 8.97516 0.854432 9.16206 0.775108 9.36665C0.608411 9.77242 0.608411 10.2275 0.775108 10.6333C0.854432 10.8379 0.973374 11.0248 1.12511 11.1833L9.45844 19.5166C9.61338 19.6729 9.79772 19.7969 10.0008 19.8815C10.2039 19.9661 10.4218 20.0096 10.6418 20.0096C10.8618 20.0096 11.0796 19.9661 11.2827 19.8815C11.4858 19.7969 11.6702 19.6729 11.8251 19.5166C11.9813 19.3617 12.1053 19.1774 12.1899 18.9743C12.2745 18.7712 12.3181 18.5533 12.3181 18.3333C12.3181 18.1133 12.2745 17.8955 12.1899 17.6924C12.1053 17.4893 11.9813 17.3049 11.8251 17.15L6.32511 11.6666H18.9751C19.4171 11.6666 19.8411 11.4911 20.1536 11.1785C20.4662 10.8659 20.6418 10.442 20.6418 9.99998C20.6418 9.55795 20.4662 9.13403 20.1536 8.82147C19.8411 8.50891 19.4171 8.33332 18.9751 8.33332Z" fill="#161654"/>
</svg>
